<svg width="400" height="400" viewBox="0 0 400 400" fill="none" xmlns="http://www.w3.org/2000/svg">
  <!-- Background circle -->
  <circle cx="200" cy="200" r="180" fill="#E6FFFA" />
  
  <!-- Ground/earth -->
  <path d="M80 250
           Q125 220, 175 250
           Q225 280, 275 250
           Q325 220, 360 250
           L360 320
           L80 320
           Z" 
           fill="#38B2AC" />
  
  <!-- Tree trunk -->
  <rect x="190" y="180" width="20" height="70" fill="#805AD5" />
  
  <!-- Tree roots -->
  <path d="M190 250
           Q175 260, 160 270
           Q150 280, 140 290"
           stroke="#805AD5" stroke-width="4" fill="none" />
  
  <path d="M210 250
           Q225 260, 240 270
           Q250 280, 260 290"
           stroke="#805AD5" stroke-width="4" fill="none" />
  
  <path d="M200 250
           Q200 270, 200 290"
           stroke="#805AD5" stroke-width="4" fill="none" />
  
  <!-- Tree branches -->
  <path d="M200 180
           Q180 160, 160 150"
           stroke="#805AD5" stroke-width="4" fill="none" />
  
  <path d="M200 180
           Q220 160, 240 150"
           stroke="#805AD5" stroke-width="4" fill="none" />
  
  <path d="M200 160
           Q200 140, 200 120
           Q195 100, 180 90"
           stroke="#805AD5" stroke-width="4" fill="none" />
  
  <path d="M200 160
           Q205 140, 210 120
           Q225 100, 230 90"
           stroke="#805AD5" stroke-width="4" fill="none" />
  
  <!-- Leaves/foliage -->
  <circle cx="160" cy="150" r="15" fill="#4FD1C5" />
  <circle cx="240" cy="150" r="15" fill="#4FD1C5" />
  <circle cx="180" cy="90" r="15" fill="#4FD1C5" />
  <circle cx="230" cy="90" r="15" fill="#4FD1C5" />
  <circle cx="200" cy="120" r="20" fill="#4FD1C5" />
  
  <!-- 5 senses symbols (5-4-3-2-1 technique) -->
  <!-- See (eye) -->
  <circle cx="110" cy="120" r="15" fill="#B2F5EA" stroke="#38B2AC" stroke-width="2" />
  <circle cx="110" cy="120" r="5" fill="#38B2AC" />
  <!-- Hear (ear) -->
  <path d="M280 120
           C295 110, 310 120, 310 135
           C310 150, 295 155, 290 145
           C285 135, 285 130, 280 120Z"
           fill="#B2F5EA" stroke="#38B2AC" stroke-width="2" />
  <!-- Touch (hand) -->
  <circle cx="155" cy="200" r="12" fill="#B2F5EA" stroke="#38B2AC" stroke-width="2" />
  <!-- Smell (nose) -->
  <path d="M270 190
           C280 180, 290 190, 290 200
           L280 210
           L270 200
           Z"
           fill="#B2F5EA" stroke="#38B2AC" stroke-width="2" />
  <!-- Taste (mouth) -->
  <path d="M110 170
           C120 180, 130 180, 140 170"
           stroke="#38B2AC" stroke-width="3" fill="none" />
</svg> 