<svg width="43" height="202" viewBox="0 0 43 202" fill="none" xmlns="http://www.w3.org/2000/svg">
<path d="M-1.74846e-07 198L0 202L28.4553 202L28.4553 198L-1.74846e-07 198Z" fill="#1A130C"/>
<path d="M-8.74228e-08 194L0 196L28.4553 196L28.4553 194L-8.74228e-08 194Z" fill="#1A130C"/>
<path d="M-8.74228e-08 188L0 190L28.4553 190L28.4553 188L-8.74228e-08 188Z" fill="#1A130C"/>
<path d="M-1.74846e-07 176L0 180L28.4553 180L28.4553 176L-1.74846e-07 176Z" fill="#1A130C"/>
<path d="M-8.74228e-08 168L0 170L28.4553 170L28.4553 168L-8.74228e-08 168Z" fill="#1A130C"/>
<path d="M-8.74228e-08 164L0 166L28.4553 166L28.4553 164L-8.74228e-08 164Z" fill="#1A130C"/>
<path d="M-8.74228e-08 156L0 158L28.4553 158L28.4553 156L-8.74228e-08 156Z" fill="#1A130C"/>
<path d="M-8.74228e-08 150L0 152L28.4553 152L28.4553 150L-8.74228e-08 150Z" fill="#1A130C"/>
<path d="M-1.74846e-07 144L0 148L28.4553 148L28.4553 144L-1.74846e-07 144Z" fill="#1A130C"/>
<path d="M-8.74228e-08 134L0 136L28.4553 136L28.4553 134L-8.74228e-08 134Z" fill="#1A130C"/>
<path d="M-1.74846e-07 128L0 132L28.4553 132L28.4553 128L-1.74846e-07 128Z" fill="#1A130C"/>
<path d="M-8.74228e-08 122L0 124L28.4553 124L28.4553 122L-8.74228e-08 122Z" fill="#1A130C"/>
<path d="M-1.74846e-07 110L0 114L28.4553 114L28.4553 110L-1.74846e-07 110Z" fill="#1A130C"/>
<path d="M-8.74228e-08 104L0 106L28.4553 106L28.4553 104L-8.74228e-08 104Z" fill="#1A130C"/>
<path d="M-8.74228e-08 100L0 102L28.4553 102L28.4553 100L-8.74228e-08 100Z" fill="#1A130C"/>
<path d="M-8.74228e-08 90L0 92L28.4553 92L28.4553 90L-8.74228e-08 90Z" fill="#1A130C"/>
<path d="M-1.74846e-07 82L0 86L28.4553 86L28.4553 82L-1.74846e-07 82Z" fill="#1A130C"/>
<path d="M-2.62268e-07 72L0 78L28.4553 78L28.4553 72L-2.62268e-07 72Z" fill="#1A130C"/>
<path d="M-8.74228e-08 68L0 70L28.4553 70L28.4553 68L-8.74228e-08 68Z" fill="#1A130C"/>
<path d="M-8.74228e-08 62L0 64L28.4553 64L28.4553 62L-8.74228e-08 62Z" fill="#1A130C"/>
<path d="M-3.49691e-07 50L0 58L28.4553 58L28.4553 50L-3.49691e-07 50Z" fill="#1A130C"/>
<path d="M-8.74228e-08 46L0 48L28.4553 48L28.4553 46L-8.74228e-08 46Z" fill="#1A130C"/>
<path d="M-1.74846e-07 36L0 40L28.4553 40L28.4553 36L-1.74846e-07 36Z" fill="#1A130C"/>
<path d="M-8.74228e-08 30L0 32L28.4553 32L28.4553 30L-8.74228e-08 30Z" fill="#1A130C"/>
<path d="M-1.74846e-07 22L0 26L28.4553 26L28.4553 22L-1.74846e-07 22Z" fill="#1A130C"/>
<path d="M-2.62268e-07 10L0 16L28.4553 16L28.4553 10L-2.62268e-07 10Z" fill="#1A130C"/>
<path d="M-8.74228e-08 6L0 8L28.4553 8L28.4553 6L-8.74228e-08 6Z" fill="#1A130C"/>
<path d="M-1.74846e-07 0L0 4L28.4553 4L28.4553 -1.24382e-06L-1.74846e-07 0Z" fill="#1A130C"/>
<path d="M42.7317 116.566L34.0044 116.566L34.0044 115.509L37.8908 115.509L37.8908 110.856L34.0044 110.856L34.0044 109.799L42.7317 109.799L42.7317 110.856L38.8283 110.856L38.8283 115.509L42.7317 115.509L42.7317 116.566ZM42.8851 105.894C42.8851 106.308 42.807 106.685 42.6507 107.023C42.4916 107.361 42.2629 107.629 41.9646 107.828C41.6635 108.027 41.2999 108.127 40.8737 108.127C40.4987 108.127 40.1948 108.053 39.9618 107.905C39.726 107.757 39.5413 107.56 39.4078 107.313C39.2743 107.066 39.1749 106.793 39.1095 106.494C39.0413 106.193 38.9874 105.891 38.9476 105.587C38.8965 105.189 38.8581 104.867 38.8325 104.619C38.8041 104.369 38.7573 104.188 38.6919 104.074C38.6266 103.958 38.5129 103.899 38.351 103.899L38.3169 103.899C37.8965 103.899 37.5698 104.014 37.3368 104.244C37.1038 104.472 36.9874 104.817 36.9874 105.28C36.9874 105.76 37.0925 106.137 37.3027 106.409C37.5129 106.682 37.7374 106.874 37.976 106.985L37.6351 107.939C37.2374 107.769 36.9277 107.541 36.7061 107.257C36.4817 106.97 36.3254 106.658 36.2374 106.32C36.1465 105.979 36.101 105.644 36.101 105.314C36.101 105.104 36.1266 104.862 36.1777 104.59C36.226 104.314 36.3269 104.048 36.4803 103.793C36.6337 103.534 36.8652 103.32 37.1749 103.149C37.4845 102.979 37.8993 102.894 38.4192 102.894L42.7317 102.894L42.7317 103.899L41.8453 103.899L41.8453 103.95C41.9874 104.019 42.1394 104.132 42.3013 104.291C42.4632 104.45 42.601 104.662 42.7146 104.926C42.8283 105.191 42.8851 105.513 42.8851 105.894ZM41.9817 105.74C41.9817 105.343 41.9036 105.007 41.7473 104.735C41.5911 104.459 41.3894 104.252 41.1422 104.112C40.895 103.97 40.6351 103.899 40.3624 103.899L39.4419 103.899C39.4931 103.942 39.5399 104.036 39.5825 104.181C39.6223 104.323 39.6578 104.487 39.6891 104.675C39.7175 104.86 39.7431 105.04 39.7658 105.216C39.7857 105.389 39.8027 105.53 39.8169 105.638C39.851 105.899 39.9064 106.144 39.9831 106.371C40.057 106.595 40.1692 106.777 40.3198 106.916C40.4675 107.053 40.6692 107.121 40.9249 107.121C41.2743 107.121 41.5385 106.992 41.7175 106.733C41.8936 106.472 41.9817 106.141 41.9817 105.74ZM42.8681 98.3137C42.8681 98.9444 42.7288 99.4885 42.4504 99.9458C42.1692 100.4 41.7771 100.751 41.2743 100.998C40.7686 101.243 40.1806 101.365 39.5101 101.365C38.8396 101.365 38.2487 101.243 37.7374 100.998C37.2232 100.751 36.8226 100.407 36.5357 99.9672C36.2459 99.524 36.101 99.0069 36.101 98.416C36.101 98.0751 36.1578 97.7385 36.2715 97.4061C36.3851 97.0737 36.5698 96.7711 36.8254 96.4984C37.0783 96.2257 37.4135 96.0083 37.8311 95.8464C38.2487 95.6845 38.7629 95.6035 39.3737 95.6035L39.7999 95.6035L39.7999 100.649L38.9306 100.649L38.9306 96.6262C38.5612 96.6262 38.2317 96.7001 37.9419 96.8478C37.6521 96.9927 37.4234 97.2001 37.2558 97.47C37.0882 97.737 37.0044 98.0524 37.0044 98.416C37.0044 98.8166 37.1038 99.1632 37.3027 99.4558C37.4987 99.7456 37.7544 99.9686 38.0698 100.125C38.3851 100.281 38.7232 100.359 39.084 100.359L39.6635 100.359C40.1578 100.359 40.5769 100.274 40.9206 100.104C41.2615 99.9302 41.5215 99.6902 41.7004 99.3833C41.8766 99.0765 41.9646 98.72 41.9646 98.3137C41.9646 98.0495 41.9277 97.8109 41.8538 97.5978C41.7771 97.3819 41.6635 97.1958 41.5129 97.0396C41.3595 96.8833 41.1692 96.7626 40.9419 96.6774L41.2146 95.7058C41.5442 95.8081 41.834 95.9799 42.084 96.2214C42.3311 96.4629 42.5243 96.7612 42.6635 97.1163C42.7999 97.4714 42.8681 97.8706 42.8681 98.3137ZM34.0044 93.068L42.7317 93.068L42.7317 94.0737L34.0044 94.0737L34.0044 93.068ZM42.7999 90.4931C42.7999 90.7033 42.7246 90.8837 42.574 91.0343C42.4234 91.1848 42.2431 91.2601 42.0328 91.2601C41.8226 91.2601 41.6422 91.1848 41.4916 91.0343C41.3411 90.8837 41.2658 90.7033 41.2658 90.4931C41.2658 90.2828 41.3411 90.1024 41.4916 89.9519C41.6422 89.8013 41.8226 89.726 42.0328 89.726C42.172 89.726 42.2999 89.7615 42.4163 89.8326C42.5328 89.9007 42.6266 89.9931 42.6976 90.1096C42.7658 90.2232 42.7999 90.351 42.7999 90.4931ZM42.7317 87.9213L36.1862 87.9213L36.1862 86.9498L37.1749 86.9498L37.1749 86.8816C36.851 86.7623 36.5882 86.5463 36.3865 86.2338C36.1848 85.9213 36.084 85.5691 36.084 85.177C36.084 85.1032 36.0854 85.0108 36.0882 84.9C36.0911 84.7892 36.0953 84.7054 36.101 84.6486L37.1237 84.6486C37.1152 84.6827 37.1024 84.7608 37.0854 84.883C37.0655 85.0023 37.0556 85.1287 37.0556 85.2623C37.0556 85.5804 37.1223 85.8645 37.2558 86.1145C37.3865 86.3617 37.5683 86.5577 37.8013 86.7026C38.0314 86.8446 38.2942 86.9157 38.5896 86.9157L42.7317 86.9157L42.7317 87.9213Z" fill="#1A130C"/>
</svg>
